<?xml version="1.0" encoding="UTF-8"?>
<svg id="Layer_1" xmlns="http://www.w3.org/2000/svg" version="1.1" viewBox="0 0 238.89 139.58">
  <!-- Generator: Adobe Illustrator 29.6.1, SVG Export Plug-In . SVG Version: 2.1.1 Build 9)  -->
  <defs>
    <style>
      .st0 {
        fill: #6c50a0;
      }
    </style>
  </defs>
  <path class="st0" d="M205.43,23.73h-15.71v5.64h15.4c7.52,0,12.97,4.7,12.97,11.53v9.66h-52.18v-26.81h-5.51v26.42c0,10.4-2.26,14.78-13.47,14.78v5.64c12.97,0,17.58-4.77,18.7-14.51h8.86s49.3,0,49.3,0v-16.05c0-9.52-7.45-16.29-18.36-16.29Z"/>
  <path class="st0" d="M148.4,40.01c0-9.52-7.39-16.29-18.36-16.29h-16.29l14.5-14.12h-6.77l-14.31,14.12v5.64h22.55c7.58,0,13.03,4.7,13.03,11.53v9.66h-28.47s-59.76,0-59.76,0c-1.75-.01-3.24-.32-4.54-.84-.43-10.55-9.12-19-19.77-19s-19.81,8.89-19.81,19.81h5.47c0-7.91,6.43-14.34,14.34-14.34s14.34,6.43,14.34,14.34c0,3.31-1.1,6.42-3.17,8.99l4.26,3.43c1.81-2.25,3.09-4.87,3.78-7.65,1.49.49,3.17.78,5.1.78h58.36s29.87,0,29.87,0h5.64v-16.05Z"/>
  <rect class="st0" x="31.82" y="16.76" width="6.27" height="6.27" transform="translate(-3.83 30.54) rotate(-45)"/>
  <rect class="st0" x="22.36" y="16.76" width="6.27" height="6.27" transform="translate(-6.6 23.86) rotate(-45)"/>
  <path class="st0" d="M32.55,55.23l4.91-9.87-9.87,4.91c-2.26.25-4.02,2.14-4.02,4.46,0,2.49,2.02,4.51,4.51,4.51,2.33,0,4.22-1.76,4.46-4.02Z"/>
  <polygon class="st0" points="37.62 98.42 15.88 98.42 15.88 79.18 10.24 79.18 10.24 123.04 15.88 123.04 15.88 103.81 37.62 103.81 37.62 123.04 43.26 123.04 43.26 79.18 37.62 79.18 37.62 98.42"/>
  <polygon class="st0" points="218.15 98.42 162.07 98.42 162.07 79.18 156.43 79.18 156.43 123.04 162.07 123.04 162.07 103.81 218.15 103.81 218.15 123.04 223.78 123.04 223.78 79.18 218.15 79.18 218.15 98.42"/>
  <polygon class="st0" points="138.19 79.19 131.61 79.19 116.83 98.17 114.07 98.17 114.07 79.19 108.43 79.19 108.43 123.04 114.07 123.04 114.07 103.68 116.83 103.68 132.86 123.04 139.82 123.04 121.15 100.74 138.19 79.19"/>
  <path class="st0" d="M88.69,93.16c0-3.97-1.77-7.55-4.64-10.09-.29-.26-.6-.5-.91-.74-.03-.02-.05-.05-.08-.07-2.58-1.92-5.88-3.07-9.53-3.07h-13.66v5.26h13.66c.74,0,1.45.09,2.15.24.25.06.5.12.74.19,0,0,0,0,0,0,1.48.45,2.81,1.23,3.88,2.26.02.02.04.04.06.06.13.12.25.26.37.39.06.07.12.13.18.2.1.11.19.23.28.35.07.09.14.19.21.28.08.11.15.22.22.33.07.11.15.23.21.35.06.1.12.21.17.32.07.13.14.27.2.4.05.1.09.2.13.3.06.15.12.3.17.45.03.1.07.19.1.29.05.17.1.34.14.51.02.09.05.18.06.27.04.19.07.38.09.57.05.37.09.75.09,1.14,0,4.7-4.32,8.46-9.46,8.46l-13.66-.06v21.3h5.64v-17.42h9.02l11.09,17.42h6.2l-12.15-17.79c5.26-1.75,9.02-6.39,9.02-12.09Z"/>
  <path class="st0" d="M71.96,95.44l3.56-7.16-7.16,3.56c-1.64.18-2.92,1.55-2.92,3.24,0,1.81,1.47,3.27,3.27,3.27,1.69,0,3.06-1.28,3.24-2.92Z"/>
</svg>